{
  "source": "C:\\Users\\Peter\\Desktop\\stuff\\MIUN\\quantitative_research\\video_compression\\videos\\BVI-HD\\BVI-HD_CDVL_videos\\ORIG\\KineticFastPainting_1920x1080_60fps.mp4",
  "output": "C:\\Users\\Peter\\Desktop\\stuff\\MIUN\\quantitative_research\\video_compression\\compressed_videos\\BVI-HD\\av1\\2\\KineticFastPainting_1920x1080_60fps_av1.mkv",
  "codec": "av1",
  "ok": "Input #0, mov,mp4,m4a,3gp,3g2,mj2, from 'C:\\Users\\Peter\\Desktop\\stuff\\MIUN\\quantitative_research\\video_compression\\videos\\BVI-HD\\BVI-HD_CDVL_videos\\ORIG\\KineticFastPainting_1920x1080_60fps.mp4':\n  Metadata:\n    major_brand     : isom\n    minor_version   : 512\n    compatible_brands: isomiso2avc1mp41\n    encoder         : Lavf54.28.101\n  Duration: 00:00:05.00, start: 0.000000, bitrate: 477980 kb/s\n  Stream #0:0[0x1](und): Video: h264 (High 4:4:4 Predictive) (avc1 / 0x31637661), yuv420p(progressive), 1920x1080, 477974 kb/s, 60 fps, 60 tbr, 60 tbn (default)\n    Metadata:\n      handler_name    : VideoHandler\n      vendor_id       : [0][0][0][0]\n[out#0/matroska @ 0000022399e19000] Codec AVOption b:a (set bitrate (in bits/s)) has not been used for any stream. The most likely reason is either wrong type (e.g. a video option with no video streams) or that it is a private option of some decoder which was not actually used for any stream.\nStream mapping:\n  Stream #0:0 -> #0:0 (h264 (native) -> av1 (libsvtav1))\nPress [q] to stop, [?] for help\nSvt[info]: -------------------------------------------\nSvt[info]: SVT [version]:\tSVT-AV1 Encoder Lib v3.1.0-19-g6ecfe8ec\nSvt[info]: SVT [build]  :\tGCC 15.2.0\t 64 bit\nSvt[info]: LIB Build date: Aug 17 2025 11:37:13\nSvt[info]: -------------------------------------------\nSvt[info]: Level of Parallelism: 5\nSvt[info]: Number of PPCS 93\nSvt[info]: [asm level on system : up to avx2]\nSvt[info]: [asm level selected : up to avx2]\nSvt[info]: -------------------------------------------\nSvt[info]: SVT [config]: main profile\ttier (auto)\tlevel (auto)\nSvt[info]: SVT [config]: width / height / fps numerator / fps denominator \t\t: 1920 / 1080 / 60 / 1\nSvt[info]: SVT [config]: bit-depth / color format \t\t\t\t\t: 8 / YUV420\nSvt[info]: SVT [config]: preset / tune / pred struct \t\t\t\t\t: 4 / PSNR / random access\nSvt[info]: SVT [config]: gop size / mini-gop size / key-frame type \t\t\t: 321 / 16 / key frame\nSvt[info]: SVT [config]: BRC mode / target bitrate (kbps)\t\t\t\t: VBR / 2000 \nSvt[info]: SVT [config]: AQ mode / Variance Boost \t\t\t\t\t: 2 / 0\nSvt[info]: SVT [config]: sharpness / luminance-based QP bias \t\t\t\t: 0 / 0\nSvt[info]: SVT [config]: QP scale compress strength \t\t\t\t\t: 0\nSvt[info]: -------------------------------------------\nOutput #0, matroska, to 'C:\\Users\\Peter\\Desktop\\stuff\\MIUN\\quantitative_research\\video_compression\\compressed_videos\\BVI-HD\\av1\\2\\KineticFastPainting_1920x1080_60fps_av1.mkv':\n  Metadata:\n    major_brand     : isom\n    minor_version   : 512\n    compatible_brands: isomiso2avc1mp41\n    encoder         : Lavf62.3.100\n  Stream #0:0(und): Video: av1 (AV01 / 0x31305641), yuv420p(tv, progressive), 1920x1080, q=2-31, 2000 kb/s, 60 fps, 1k tbn (default)\n    Metadata:\n      encoder         : Lavc62.11.100 libsvtav1\n      handler_name    : VideoHandler\n      vendor_id       : [0][0][0][0]\n    Side data:\n      cpb: bitrate max/min/avg: 0/0/2000000 buffer size: 2000000 vbv_delay: N/A\nframe=    0 fps=0.0 q=0.0 size=       0KiB time=N/A bitrate=N/A speed=N/A elapsed=0:00:01.05    \nframe=    0 fps=0.0 q=0.0 size=       0KiB time=N/A bitrate=N/A speed=N/A elapsed=0:00:01.66    \nframe=    0 fps=0.0 q=0.0 size=       0KiB time=N/A bitrate=N/A speed=N/A elapsed=0:00:02.24    \nframe=    0 fps=0.0 q=0.0 size=       0KiB time=N/A bitrate=N/A speed=N/A elapsed=0:00:02.80    \nframe=    0 fps=0.0 q=0.0 size=       0KiB time=N/A bitrate=N/A speed=N/A elapsed=0:00:03.35    \nframe=    0 fps=0.0 q=0.0 size=       0KiB time=N/A bitrate=N/A speed=N/A elapsed=0:00:03.90    \nframe=    0 fps=0.0 q=0.0 size=       0KiB time=N/A bitrate=N/A speed=N/A elapsed=0:00:04.42    \nframe=    1 fps=0.2 q=38.0 size=       1KiB time=00:00:00.00 bitrate=N/A speed=   0x elapsed=0:00:04.95    \nframe=    1 fps=0.2 q=38.0 size=       1KiB time=00:00:00.00 bitrate=N/A speed=   0x elapsed=0:00:05.48    \nframe=    1 fps=0.2 q=38.0 size=       1KiB time=00:00:00.00 bitrate=N/A speed=   0x elapsed=0:00:06.00    \nframe=    3 fps=0.5 q=54.0 size=       1KiB time=00:00:00.03 bitrate= 170.9kbits/s speed=0.00508x elapsed=0:00:06.56    \nframe=    6 fps=0.8 q=55.0 size=       1KiB time=00:00:00.08 bitrate=  68.4kbits/s speed=0.0117x elapsed=0:00:07.09    \nframe=    8 fps=1.0 q=54.0 size=       1KiB time=00:00:00.11 bitrate=  48.8kbits/s speed=0.0152x elapsed=0:00:07.67    \nframe=   11 fps=1.3 q=52.0 size=       1KiB time=00:00:00.16 bitrate=  34.2kbits/s speed=0.0201x elapsed=0:00:08.27    \nframe=   14 fps=1.6 q=55.0 size=       1KiB time=00:00:00.20 bitrate=  28.5kbits/s speed=0.0228x elapsed=0:00:08.78    \nframe=   17 fps=1.8 q=40.0 size=       1KiB time=00:00:00.26 bitrate=  21.4kbits/s speed=0.0286x elapsed=0:00:09.32    \nframe=   20 fps=2.0 q=56.0 size=       1KiB time=00:00:00.31 bitrate=  18.0kbits/s speed=0.0322x elapsed=0:00:09.83    \nframe=   23 fps=2.2 q=51.0 size=       1KiB time=00:00:00.36 bitrate=  15.5kbits/s speed=0.0352x elapsed=0:00:10.41    \nframe=   26 fps=2.4 q=56.0 size=       1KiB time=00:00:00.41 bitrate=  13.7kbits/s speed=0.0379x elapsed=0:00:11.00    \nframe=   31 fps=2.7 q=53.0 size=       1KiB time=00:00:00.46 bitrate=  12.2kbits/s speed=0.0405x elapsed=0:00:11.52    \nframe=   35 fps=2.9 q=55.0 size=       1KiB time=00:00:00.56 bitrate=  10.1kbits/s speed=0.0467x elapsed=0:00:12.13    \nframe=   38 fps=3.0 q=57.0 size=       1KiB time=00:00:00.61 bitrate=   9.2kbits/s speed=0.0486x elapsed=0:00:12.67    \nframe=   41 fps=3.1 q=49.0 size=       1KiB time=00:00:00.65 bitrate=   8.8kbits/s speed=0.049x elapsed=0:00:13.25    \nframe=   44 fps=3.2 q=58.0 size=       1KiB time=00:00:00.71 bitrate=   7.9kbits/s speed=0.0519x elapsed=0:00:13.81    \nframe=   49 fps=3.4 q=41.0 size=       1KiB time=00:00:00.80 bitrate=   7.1kbits/s speed=0.0558x elapsed=0:00:14.34    \nframe=   51 fps=3.4 q=57.0 size=       1KiB time=00:00:00.83 bitrate=   6.8kbits/s speed=0.056x elapsed=0:00:14.87    \nframe=   55 fps=3.6 q=53.0 size=       1KiB time=00:00:00.88 bitrate=   6.4kbits/s speed=0.0573x elapsed=0:00:15.41    \nframe=   58 fps=3.6 q=58.0 size=       1KiB time=00:00:00.95 bitrate=   6.0kbits/s speed=0.0591x elapsed=0:00:16.06    \nframe=   60 fps=3.6 q=59.0 size=       1KiB time=00:00:00.98 bitrate=   5.8kbits/s speed=0.0593x elapsed=0:00:16.59    \nframe=   66 fps=3.9 q=59.0 size=       1KiB time=00:00:01.08 bitrate=   5.3kbits/s speed=0.0633x elapsed=0:00:17.12    \nframe=   69 fps=3.9 q=55.0 size=       1KiB time=00:00:01.13 bitrate=   5.0kbits/s speed=0.064x elapsed=0:00:17.70    \nframe=   71 fps=3.9 q=57.0 size=       1KiB time=00:00:01.16 bitrate=   4.9kbits/s speed=0.0638x elapsed=0:00:18.27    \nframe=   75 fps=4.0 q=56.0 size=       1KiB time=00:00:01.23 bitrate=   4.6kbits/s speed=0.0655x elapsed=0:00:18.83    \nframe=   80 fps=4.1 q=59.0 size=       1KiB time=00:00:01.31 bitrate=   4.3kbits/s speed=0.0679x elapsed=0:00:19.40    \nframe=   83 fps=4.2 q=57.0 size=       1KiB time=00:00:01.36 bitrate=   4.2kbits/s speed=0.0685x elapsed=0:00:19.95    \nframe=   87 fps=4.2 q=57.0 size=       1KiB time=00:00:01.43 bitrate=   4.0kbits/s speed=0.0699x elapsed=0:00:20.50    \nframe=   90 fps=4.3 q=59.0 size=       1KiB time=00:00:01.48 bitrate=   3.8kbits/s speed=0.0701x elapsed=0:00:21.15    \nframe=   94 fps=4.3 q=60.0 size=       1KiB time=00:00:01.55 bitrate=   3.7kbits/s speed=0.0715x elapsed=0:00:21.67    \nframe=   99 fps=4.5 q=58.0 size=       1KiB time=00:00:01.63 bitrate=   3.5kbits/s speed=0.0736x elapsed=0:00:22.20    \nframe=  102 fps=4.5 q=60.0 size=       1KiB time=00:00:01.68 bitrate=   3.4kbits/s speed=0.0741x elapsed=0:00:22.72    \nframe=  105 fps=4.5 q=52.0 size=       1KiB time=00:00:01.70 bitrate=   3.4kbits/s speed=0.0731x elapsed=0:00:23.26    \nframe=  108 fps=4.5 q=60.0 size=       1KiB time=00:00:01.78 bitrate=   3.2kbits/s speed=0.0748x elapsed=0:00:23.85    \nframe=  113 fps=4.6 q=45.0 size=       1KiB time=00:00:01.86 bitrate=   3.1kbits/s speed=0.0765x elapsed=0:00:24.39    \nframe=  117 fps=4.7 q=56.0 size=       1KiB time=00:00:01.93 bitrate=   2.9kbits/s speed=0.0776x elapsed=0:00:24.92    \nframe=  119 fps=4.7 q=58.0 size=       1KiB time=00:00:01.96 bitrate=   2.9kbits/s speed=0.0773x elapsed=0:00:25.43    \nframe=  123 fps=4.7 q=57.0 size=       1KiB time=00:00:02.03 bitrate=   2.8kbits/s speed=0.0781x elapsed=0:00:26.02    \nframe=  130 fps=4.9 q=60.0 size=       1KiB time=00:00:02.15 bitrate=   2.6kbits/s speed=0.0808x elapsed=0:00:26.59    \nframe=  133 fps=4.9 q=56.0 size=       1KiB time=00:00:02.20 bitrate=   2.6kbits/s speed=0.0811x elapsed=0:00:27.11    \nframe=  135 fps=4.9 q=55.0 size=       1KiB time=00:00:02.23 bitrate=   2.6kbits/s speed=0.0808x elapsed=0:00:27.64    \nframe=  139 fps=4.9 q=57.0 size=       1KiB time=00:00:02.30 bitrate=   2.5kbits/s speed=0.0816x elapsed=0:00:28.18    \nframe=  144 fps=5.0 q=60.0 size=       1KiB time=00:00:02.38 bitrate=   2.4kbits/s speed=0.0829x elapsed=0:00:28.74    \nframe=  147 fps=5.0 q=58.0 size=       1KiB time=00:00:02.43 bitrate=   2.3kbits/s speed=0.0831x elapsed=0:00:29.27    \nframe=  150 fps=5.0 q=60.0 size=       1KiB time=00:00:02.48 bitrate=   2.3kbits/s speed=0.0834x elapsed=0:00:29.79    \nframe=  153 fps=5.0 q=53.0 size=       1KiB time=00:00:02.53 bitrate=   2.2kbits/s speed=0.0834x elapsed=0:00:30.36    \nframe=  158 fps=5.1 q=59.0 size=       1KiB time=00:00:02.61 bitrate=   2.2kbits/s speed=0.0845x elapsed=0:00:30.94    \nframe=  163 fps=5.2 q=57.0 size=       1KiB time=00:00:02.70 bitrate=   2.1kbits/s speed=0.0857x elapsed=0:00:31.52    \nframe=  166 fps=5.2 q=59.0 size=       1KiB time=00:00:02.75 bitrate=   2.1kbits/s speed=0.0857x elapsed=0:00:32.10    \nframe=  169 fps=5.2 q=53.0 size=       1KiB time=00:00:02.80 bitrate=   2.0kbits/s speed=0.0858x elapsed=0:00:32.65    \nframe=  174 fps=5.2 q=59.0 size=       1KiB time=00:00:02.85 bitrate=   2.0kbits/s speed=0.0859x elapsed=0:00:33.18    \nframe=  178 fps=5.3 q=59.0 size=       1KiB time=00:00:02.95 bitrate=   1.9kbits/s speed=0.0874x elapsed=0:00:33.74    \nframe=  181 fps=5.3 q=56.0 size=       1KiB time=00:00:03.00 bitrate=   1.9kbits/s speed=0.0876x elapsed=0:00:34.26    \nframe=  185 fps=5.3 q=52.0 size=       1KiB time=00:00:03.05 bitrate=   1.9kbits/s speed=0.0877x elapsed=0:00:34.78    \nframe=  187 fps=5.3 q=56.0 size=       1KiB time=00:00:03.10 bitrate=   1.8kbits/s speed=0.0878x elapsed=0:00:35.31    \nframe=  193 fps=5.4 q=45.0 size=       1KiB time=00:00:03.20 bitrate=   1.8kbits/s speed=0.0892x elapsed=0:00:35.87    \nframe=  197 fps=5.4 q=56.0 size=       1KiB time=00:00:03.26 bitrate=   1.7kbits/s speed=0.0897x elapsed=0:00:36.40    \nframe=  199 fps=5.4 q=58.0 size=       1KiB time=00:00:03.30 bitrate=   1.7kbits/s speed=0.0893x elapsed=0:00:36.94    \nframe=  205 fps=5.5 q=54.0 size=       1KiB time=00:00:03.40 bitrate=   1.7kbits/s speed=0.0907x elapsed=0:00:37.48    \nframe=  211 fps=5.5 q=58.0 size=       1KiB time=00:00:03.46 bitrate=   1.6kbits/s speed=0.0911x elapsed=0:00:38.04    \nframe=  217 fps=5.6 q=53.0 size=       1KiB time=00:00:03.60 bitrate=   1.6kbits/s speed=0.0933x elapsed=0:00:38.60    \nframe=  219 fps=5.6 q=57.0 size=       1KiB time=00:00:03.63 bitrate=   1.6kbits/s speed=0.0928x elapsed=0:00:39.15    \nframe=  223 fps=5.6 q=56.0 size=       1KiB time=00:00:03.70 bitrate=   1.5kbits/s speed=0.0932x elapsed=0:00:39.68    \nframe=  229 fps=5.7 q=56.0 size=       1KiB time=00:00:03.80 bitrate=   1.5kbits/s speed=0.0945x elapsed=0:00:40.22    \nframe=  233 fps=5.7 q=53.0 size=       1KiB time=00:00:03.86 bitrate=   1.5kbits/s speed=0.0949x elapsed=0:00:40.76    \nframe=  237 fps=5.7 q=54.0 size=       1KiB time=00:00:03.93 bitrate=   1.4kbits/s speed=0.0952x elapsed=0:00:41.30    \nframe=  243 fps=5.8 q=59.0 size=       1KiB time=00:00:04.03 bitrate=   1.4kbits/s speed=0.0964x elapsed=0:00:41.83    \nframe=  249 fps=5.9 q=53.0 size=       1KiB time=00:00:04.13 bitrate=   1.4kbits/s speed=0.0975x elapsed=0:00:42.37    \nframe=  253 fps=5.9 q=54.0 size=       1KiB time=00:00:04.16 bitrate=   1.4kbits/s speed=0.0971x elapsed=0:00:42.92    \nframe=  257 fps=5.9 q=46.0 size=       1KiB time=00:00:04.26 bitrate=   1.3kbits/s speed=0.0981x elapsed=0:00:43.51    \nframe=  261 fps=5.9 q=57.0 size=       1KiB time=00:00:04.33 bitrate=   1.3kbits/s speed=0.0984x elapsed=0:00:44.06    \nframe=  265 fps=5.9 q=54.0 size=       1KiB time=00:00:04.40 bitrate=   1.3kbits/s speed=0.0986x elapsed=0:00:44.62    \nframe=  267 fps=5.9 q=57.0 size=       1KiB time=00:00:04.43 bitrate=   1.3kbits/s speed=0.0982x elapsed=0:00:45.15    \nframe=  273 fps=6.0 q=47.0 size=       1KiB time=00:00:04.50 bitrate=   1.3kbits/s speed=0.0985x elapsed=0:00:45.66    \nframe=  277 fps=6.0 q=59.0 size=       1KiB time=00:00:04.60 bitrate=   1.2kbits/s speed=0.0996x elapsed=0:00:46.19    \nframe=  281 fps=6.0 q=55.0 size=       1KiB time=00:00:04.66 bitrate=   1.2kbits/s speed=0.0999x elapsed=0:00:46.72    \nframe=  285 fps=6.0 q=59.0 size=       1KiB time=00:00:04.73 bitrate=   1.2kbits/s speed= 0.1x elapsed=0:00:47.25    \nframe=  293 fps=6.1 q=55.0 size=       1KiB time=00:00:04.86 bitrate=   1.2kbits/s speed=0.102x elapsed=0:00:47.79    \n[out#0/matroska @ 0000022399e19000] video:1311KiB audio:0KiB subtitle:0KiB other streams:0KiB global headers:0KiB muxing overhead: 0.158419%\nframe=  300 fps=6.3 q=59.0 Lsize=    1313KiB time=00:00:04.98 bitrate=2158.8kbits/s speed=0.104x elapsed=0:00:47.98    \n",
  "seconds": 48.65613555908203,
  "probe_out": {}
}